<svg xmlns="http://www.w3.org/2000/svg" viewBox="0 0 1559.38 839.5"><defs><style>.cls-1,.cls-2{fill:#053541;}.cls-2{fill-rule:evenodd;}</style></defs><g id="Layer_2" data-name="Layer 2"><g id="Layer_1-2" data-name="Layer 1"><path class="cls-1" d="M0,574.45V330.59H56.17q61.65,0,61.65,71.58,0,21.58-6.68,36.65T87.68,463.14l37.67,111.31h-37L55.83,470.33H34.93V574.45Zm34.93-211v76H54.8q9.24,0,14.73-2.57a20,20,0,0,0,8.56-7.36,33.63,33.63,0,0,0,3.77-11.82,114.25,114.25,0,0,0,1-16.26,114.4,114.4,0,0,0-1-16.27,32.72,32.72,0,0,0-4.11-12.16q-6.51-9.58-24.66-9.59Z"/><path class="cls-1" d="M181.52,574.45,236,330.59h29.11l54.46,243.86H284.61L274.34,522H226.73l-10.27,52.41Zm86.31-85.29L250.71,400.8H250L232.9,489.16Z"/><path class="cls-1" d="M389.07,574.45V330.59H424V574.45Z"/><path class="cls-1" d="M507.92,574.45V330.59h33.56l52.75,146.93h.68V330.59h34.94V574.45H597L543.54,427.86h-.69V574.45Z"/><path class="cls-1" d="M745.27,574.45V471.36L697.32,330.59h37l28.08,96.93h.69l28.08-96.93h37L780.2,471.36V574.45Z"/><path class="cls-1" d="M897,574.45V330.59H948.7q30.13,0,45.73,16.44T1010,393.61V507.66q0,34.24-16.61,50.52t-47.78,16.27Zm34.93-211v178.1H948q14.72,0,20.89-7.37t6.17-23.12V393.61q0-14.39-5.83-22.26T948,363.47Z"/><path class="cls-1" d="M1074.4,574.45l54.46-243.86H1158l54.46,243.86h-34.94L1167.22,522h-47.61l-10.27,52.41Zm86.31-85.29-17.12-88.36h-.69l-17.12,88.36Z"/><path class="cls-1" d="M1294.63,574.45V471.36l-48-140.77h37l28.08,96.93h.69l28.08-96.93h37l-48,140.77V574.45Z"/><path class="cls-1" d="M1559.38,400.8h-34.94v-7.88q0-12-5.65-20.72t-19-8.73c-4.79,0-8.68.91-11.64,2.74a23,23,0,0,0-7.2,6.85,28.77,28.77,0,0,0-3.76,10.1,65.57,65.57,0,0,0-1,11.82,116.81,116.81,0,0,0,.51,12,22.85,22.85,0,0,0,2.57,8.56,19.08,19.08,0,0,0,6,6.51,54.69,54.69,0,0,0,10.78,5.48l26.72,10.61q11.64,4.46,18.84,10.45a45.29,45.29,0,0,1,11.3,13.87,65.08,65.08,0,0,1,5.14,18.67,185.27,185.27,0,0,1,1.37,23.8,125.2,125.2,0,0,1-3.09,28.6,60.06,60.06,0,0,1-9.93,22.43A49.21,49.21,0,0,1,1527.52,571q-11.64,5.47-28.42,5.48a62.39,62.39,0,0,1-23.64-4.45,56.18,56.18,0,0,1-18.83-12.33,59.82,59.82,0,0,1-12.5-18.32,55.56,55.56,0,0,1-4.63-22.78v-13h34.94v11a28.51,28.51,0,0,0,5.65,17.29q5.64,7.71,19,7.71,8.89,0,13.87-2.57a18.49,18.49,0,0,0,7.7-7.37,27.07,27.07,0,0,0,3.26-11.47q.51-6.67.51-14.9a149.55,149.55,0,0,0-.68-15.75,27.16,27.16,0,0,0-2.74-9.93,19.39,19.39,0,0,0-6.34-6.17,83,83,0,0,0-10.45-5.14l-25-10.27q-22.61-9.25-30.31-24.49t-7.71-38.19a88.67,88.67,0,0,1,3.77-26,59.23,59.23,0,0,1,11.3-21.23,52,52,0,0,1,18.33-14.22q11.12-5.29,26.54-5.31a57.87,57.87,0,0,1,23.8,4.8A61.31,61.31,0,0,1,1543.62,346q15.75,16.44,15.76,37.68Z"/><path class="cls-1" d="M263.74,746.49h25.2a38.83,38.83,0,0,1,7.92.79,21.19,21.19,0,0,1,7.73,4.23,17.18,17.18,0,0,1,5.33,6.89,22.79,22.79,0,0,1,2.14,10.23,22.16,22.16,0,0,1-5.44,14.52Q301,790,290.3,790.23h-16v28H263.74ZM274.27,780h15.61q5.88-.1,8.84-3.76a12.43,12.43,0,0,0,2.82-7.91,14.31,14.31,0,0,0-1.15-6.08,9,9,0,0,0-3.34-3.51,12.94,12.94,0,0,0-7.55-2H274.27Z"/><path class="cls-1" d="M322.6,767.16h9.93v30.45q0,5.17,2.82,8.08a9.29,9.29,0,0,0,7,2.91,9.16,9.16,0,0,0,7-2.91c1.84-1.94,2.77-4.63,2.77-8.08V767.16h9.93v51.08h-9.93v-5.46H352a15.75,15.75,0,0,1-12.82,6.05,16.5,16.5,0,0,1-11.09-4.62q-5.38-4.41-5.48-13.06Z"/><path class="cls-1" d="M378.17,802.64a20.41,20.41,0,0,0,15.68,6.55,13,13,0,0,0,7-1.72,5.43,5.43,0,0,0,2.72-4.83q0-2.75-1.62-3.84a8.45,8.45,0,0,0-4.44-1.23l-8.79-.78a16.52,16.52,0,0,1-10.17-4.33q-4-3.65-4.11-10.19.09-7.87,5.39-11.81,5.14-3.94,13.07-3.94a39.11,39.11,0,0,1,6.15.44,30.08,30.08,0,0,1,5.11,1.38,29,29,0,0,1,8.2,5.16l-6.16,7.43a30.1,30.1,0,0,0-6.07-3.53,19.65,19.65,0,0,0-7.26-1.24q-4.68,0-6.54,1.72a5.63,5.63,0,0,0-2,4.44,3.49,3.49,0,0,0,1.48,3c1,1,2.64,1.56,5.06,1.83l8.22.64q7.72.59,11.17,4.83a16.6,16.6,0,0,1,3.2,10.49,13.41,13.41,0,0,1-5.86,11.48q-5.73,4.14-14.64,4.24-12.11,0-21.79-9.15Z"/><path class="cls-1" d="M425.11,746.49H435v26.08h.19a15.76,15.76,0,0,1,12.86-6.05A16.65,16.65,0,0,1,459.33,771q5,4.53,5.28,13.28v34h-9.93V787.79q0-5.37-2.76-8.18a9.24,9.24,0,0,0-7-2.86,9.38,9.38,0,0,0-7.06,2.86q-2.81,2.8-2.81,8.18v30.45h-9.93Z"/><path class="cls-1" d="M479.53,746.49h9.93v10.23h-9.93Zm0,20.67h9.93v51.08h-9.93Z"/><path class="cls-1" d="M503.4,767.16h9.93v5.41h.19a15.77,15.77,0,0,1,12.86-6.05A16.63,16.63,0,0,1,537.62,771q5.05,4.53,5.29,13.28v34H533V787.79c0-3.58-.93-6.31-2.77-8.18a9.23,9.23,0,0,0-7-2.86,9.36,9.36,0,0,0-7.05,2.86q-2.82,2.8-2.82,8.18v30.45H503.4Z"/><path class="cls-1" d="M585.34,812.91a16.59,16.59,0,0,1-12.77,5.92,15.33,15.33,0,0,1-8-2.12,17.74,17.74,0,0,1-5.09-4.13,15.68,15.68,0,0,1-2.81-6.16q-.92-3.6-.91-13.69,0-10.29.91-13.94a15.19,15.19,0,0,1,2.81-6,16,16,0,0,1,5.09-4.31,16.91,16.91,0,0,1,20.77,4.14v-5.41h9.93V817q-.19,11.52-6.43,16.93a22,22,0,0,1-15,5.56q-10-.19-17.14-8.55l7.72-6.33a18.53,18.53,0,0,0,4.38,3.11,11.33,11.33,0,0,0,5.24,1.54,11.46,11.46,0,0,0,8.19-2.92,11.26,11.26,0,0,0,3.15-8.21Zm-19.65-20.16a57.25,57.25,0,0,0,.38,8.1,7.8,7.8,0,0,0,1.58,3.85,9.11,9.11,0,0,0,3.05,2.52,9.27,9.27,0,0,0,9.73,0,9.5,9.5,0,0,0,3-2.52,8.47,8.47,0,0,0,1.67-3.85,75.06,75.06,0,0,0,.29-8.1,79.74,79.74,0,0,0-.29-8.3,7.82,7.82,0,0,0-1.67-3.75,12,12,0,0,0-3-2.72,10.24,10.24,0,0,0-9.73,0,11.24,11.24,0,0,0-3.05,2.72,7.22,7.22,0,0,0-1.58,3.75A60.81,60.81,0,0,0,565.69,792.75Z"/><path class="cls-1" d="M634.6,751.61h9.93v15.55h7.24V775h-7.24v29.78q-.1,3.88,3.53,3.79h3.71v9.64h-5.18A11.61,11.61,0,0,1,638,814.9q-3.42-3.2-3.42-9.25V775h-5v-7.87h5Z"/><path class="cls-1" d="M662,746.49h9.93v26.08h.19A15.76,15.76,0,0,1,685,766.52,16.65,16.65,0,0,1,696.23,771q5,4.53,5.28,13.28v34h-9.93V787.79q0-5.37-2.76-8.18a9.24,9.24,0,0,0-7-2.86,9.38,9.38,0,0,0-7.06,2.86q-2.81,2.8-2.81,8.18v30.45H662Z"/><path class="cls-1" d="M723.61,796.58c0,4.11,1.14,7.22,3.43,9.36a11.24,11.24,0,0,0,8.4,3.25,14.62,14.62,0,0,0,10.82-5l7.21,6.36q-7.58,8.35-17.82,8.26a25,25,0,0,1-7.63-1.18,18.39,18.39,0,0,1-3.62-1.72,17.73,17.73,0,0,1-3.48-2.32,20.25,20.25,0,0,1-5.1-8q-2.15-4.92-2.14-12.79a36.58,36.58,0,0,1,1.86-12.6,21.93,21.93,0,0,1,4.76-8.07,17.68,17.68,0,0,1,6.62-4.33,20.6,20.6,0,0,1,7.15-1.33,20.18,20.18,0,0,1,14.34,5.76q6,5.76,6.05,15.85v8.45Zm20.92-8.45q-.18-6-3.1-9a10.74,10.74,0,0,0-14.72,0q-2.82,3.06-3.1,9Z"/><path class="cls-1" d="M838.45,798.19q-2.28,10-8.72,15.33A24.34,24.34,0,0,1,814,818.83a24.94,24.94,0,0,1-21.77-12.89c-.51-1.09-1-2.12-1.39-3.1a20.66,20.66,0,0,1-1-3.84q-.72-4.34-.71-16.64,0-12.5.71-16.73a20.25,20.25,0,0,1,2.34-6.84,24.51,24.51,0,0,1,8.1-8.86q5.48-3.93,13.68-4,10.07.11,16.4,6.14a27.28,27.28,0,0,1,8,15.09H827.28a15.86,15.86,0,0,0-4.68-7.4,13.5,13.5,0,0,0-8.59-3,14.35,14.35,0,0,0-6.4,1.53,13.55,13.55,0,0,0-4.39,3.7,12.05,12.05,0,0,0-2.72,6q-.76,3.84-.76,14.44t.76,14.35a12.16,12.16,0,0,0,2.72,6.07,12.45,12.45,0,0,0,4.4,3.6A12,12,0,0,0,814,808q8.88,0,13.28-9.82Z"/><path class="cls-1" d="M844.28,792.65a45.92,45.92,0,0,1,1.29-12.42,18.1,18.1,0,0,1,4.1-7.15,18.62,18.62,0,0,1,5.72-4.55,20.47,20.47,0,0,1,9.3-2,20.93,20.93,0,0,1,9.48,2,17.88,17.88,0,0,1,5.53,4.57,16.24,16.24,0,0,1,4.18,7.14,49.64,49.64,0,0,1,1.19,12.4,48.38,48.38,0,0,1-1.19,12.3,17.75,17.75,0,0,1-4.19,7.33,15.66,15.66,0,0,1-2.34,2.22,11.08,11.08,0,0,1-3.19,2.12,19.41,19.41,0,0,1-9.48,2.21,18.94,18.94,0,0,1-9.29-2.21,18.73,18.73,0,0,1-5.72-4.34,19.67,19.67,0,0,1-4.1-7.33Q844.28,800.72,844.28,792.65Zm30.86.1a47.33,47.33,0,0,0-.48-8,9.6,9.6,0,0,0-2-4.25,7.33,7.33,0,0,0-3.25-2.71,10.47,10.47,0,0,0-4.77-1,10.7,10.7,0,0,0-4.69,1,8.92,8.92,0,0,0-3.34,2.71,12.14,12.14,0,0,0-1.86,4.25,38.41,38.41,0,0,0-.58,7.9,37.3,37.3,0,0,0,.58,7.8,13.17,13.17,0,0,0,1.86,4.45,12.16,12.16,0,0,0,3.34,2.61,10.21,10.21,0,0,0,4.69,1.09,10,10,0,0,0,4.77-1.09,9.35,9.35,0,0,0,3.25-2.61,10.37,10.37,0,0,0,2-4.45A44.31,44.31,0,0,0,875.14,792.75Z"/><path class="cls-1" d="M896.73,767.16h9.95v5.41h.19a16.57,16.57,0,0,1,13.34-6.05,19,19,0,0,1,8.56,1.82,25.36,25.36,0,0,1,5.86,4.87q6-6.8,16.09-6.69A17.5,17.5,0,0,1,962.34,771q5.22,4.53,5.41,13.28v34h-9.94V787.79q0-5.37-2.85-8.18a9.94,9.94,0,0,0-7.36-2.86,10.09,10.09,0,0,0-7.41,2.86q-3,2.8-3,8.18v30.45H927.3V787.79q0-5.37-2.85-8.18a10.12,10.12,0,0,0-7.41-2.86,9.92,9.92,0,0,0-7.36,2.86q-3,2.8-3,8.18v30.45h-9.94Z"/><path class="cls-1" d="M984.58,775h-5v-7.87h5v-6.74q0-7.29,3.91-10.73a14.39,14.39,0,0,1,9.57-3.2h6.43v9.64h-5.68q-4.5-.15-4.3,4.25v6.78h10V775h-10v43.21h-9.93Z"/><path class="cls-1" d="M1008.55,792.65a45.92,45.92,0,0,1,1.29-12.42,18,18,0,0,1,4.09-7.15,18.74,18.74,0,0,1,5.72-4.55,20.53,20.53,0,0,1,9.3-2,21,21,0,0,1,9.49,2,18,18,0,0,1,5.53,4.57,16.33,16.33,0,0,1,4.18,7.14,49.73,49.73,0,0,1,1.18,12.4,47.92,47.92,0,0,1-1.19,12.3,17.53,17.53,0,0,1-4.19,7.33,15.19,15.19,0,0,1-2.34,2.22,10.81,10.81,0,0,1-3.19,2.12,19.35,19.35,0,0,1-9.48,2.21,20.29,20.29,0,0,1-15-6.55,19.81,19.81,0,0,1-4.1-7.33Q1008.56,800.72,1008.55,792.65Zm30.85.1a48.69,48.69,0,0,0-.47-8,9.72,9.72,0,0,0-2-4.25,7.44,7.44,0,0,0-3.25-2.71,10.48,10.48,0,0,0-4.78-1,10.63,10.63,0,0,0-4.68,1,8.92,8.92,0,0,0-3.34,2.71,12.15,12.15,0,0,0-1.87,4.25,39.31,39.31,0,0,0-.57,7.9,38.17,38.17,0,0,0,.57,7.8,13.19,13.19,0,0,0,1.87,4.45,12.16,12.16,0,0,0,3.34,2.61,10.14,10.14,0,0,0,4.68,1.09,10,10,0,0,0,4.78-1.09,9.54,9.54,0,0,0,3.25-2.61,10.49,10.49,0,0,0,2-4.45A45.59,45.59,0,0,0,1039.4,792.75Z"/><path class="cls-1" d="M1061.4,767.16h9.93v5.41h.21a16.29,16.29,0,0,1,23.27-2.13l-7.25,8.88a10.26,10.26,0,0,0-6.54-2.57,9.18,9.18,0,0,0-6.54,2.56q-3.06,2.52-3.15,8.13v30.8h-9.93Z"/><path class="cls-1" d="M1101.21,751.61h9.93v15.55h7.25V775h-7.25v29.78c-.06,2.59,1.11,3.85,3.53,3.79h3.72v9.64h-5.19a11.59,11.59,0,0,1-8.56-3.34q-3.44-3.2-3.43-9.25V775h-5v-7.87h5Z"/><path class="cls-1" d="M1149.44,809.23l31.51-53.1H1149.7v-9.64h44.12v8.18L1161.19,808h32.63v10.23h-44.38Z"/><path class="cls-1" d="M1202.63,792.65a45.92,45.92,0,0,1,1.29-12.42,18.1,18.1,0,0,1,4.1-7.15,18.62,18.62,0,0,1,5.72-4.55,20.5,20.5,0,0,1,9.3-2,20.93,20.93,0,0,1,9.48,2,17.76,17.76,0,0,1,5.53,4.57,16.14,16.14,0,0,1,4.18,7.14,49.64,49.64,0,0,1,1.19,12.4,48.38,48.38,0,0,1-1.19,12.3,17.64,17.64,0,0,1-4.19,7.33,15.66,15.66,0,0,1-2.34,2.22,11,11,0,0,1-3.19,2.12,19.35,19.35,0,0,1-9.48,2.21,18.94,18.94,0,0,1-9.29-2.21,18.73,18.73,0,0,1-5.72-4.34,19.81,19.81,0,0,1-4.1-7.33Q1202.63,800.72,1202.63,792.65Zm30.86.1a47.33,47.33,0,0,0-.48-8,9.6,9.6,0,0,0-2-4.25,7.35,7.35,0,0,0-3.24-2.71,10.51,10.51,0,0,0-4.78-1,10.63,10.63,0,0,0-4.68,1,9,9,0,0,0-3.35,2.71,12.14,12.14,0,0,0-1.86,4.25,39.31,39.31,0,0,0-.57,7.9,38.17,38.17,0,0,0,.57,7.8,13.17,13.17,0,0,0,1.86,4.45,12.21,12.21,0,0,0,3.35,2.61,10.14,10.14,0,0,0,4.68,1.09,10,10,0,0,0,4.78-1.09,9.4,9.4,0,0,0,3.24-2.61,10.37,10.37,0,0,0,2-4.45A44.31,44.31,0,0,0,1233.49,792.75Z"/><path class="cls-1" d="M1255.49,767.16h9.93v5.41h.19a15.76,15.76,0,0,1,12.86-6.05,16.65,16.65,0,0,1,11.24,4.48q5,4.53,5.28,13.28v34h-9.93V787.79q0-5.37-2.76-8.18a9.24,9.24,0,0,0-7-2.86,9.38,9.38,0,0,0-7.06,2.86q-2.81,2.8-2.81,8.18v30.45h-9.93Z"/><path class="cls-1" d="M1317.09,796.58c0,4.11,1.14,7.22,3.43,9.36a11.24,11.24,0,0,0,8.4,3.25,14.62,14.62,0,0,0,10.82-5l7.21,6.36q-7.58,8.35-17.82,8.26a25,25,0,0,1-7.63-1.18,18.66,18.66,0,0,1-3.62-1.72,17.73,17.73,0,0,1-3.48-2.32,20.25,20.25,0,0,1-5.1-8q-2.15-4.92-2.14-12.79a36.58,36.58,0,0,1,1.86-12.6,21.93,21.93,0,0,1,4.76-8.07,17.68,17.68,0,0,1,6.62-4.33,20.6,20.6,0,0,1,7.15-1.33,20.15,20.15,0,0,1,14.34,5.76q6,5.76,6,15.85v8.45Zm20.92-8.45q-.18-6-3.1-9a10.74,10.74,0,0,0-14.72,0q-2.82,3.06-3.1,9Z"/><path class="cls-2" d="M250.22,298.3c25-3.26,63.06-11.38,65.5-13.41,160.45-131.92-18.81,72.54,157.41-71.7,75.19-61.53,48.31-35.58,107.38,15,20.87,17.9,43.47-29.27,22-67-.63-1.09,44.18-54.7,44.82-55.13-.55-4.1,17.41,88.52,16.48,24.38,0-.46,12.94-45.07,21.15-45.6,17.78-1.14-7.5-17,23-36.15,7.34-4.57,17.49-27.84,19.28-32.4.31.46,46.72,42.06,53.76,50.61,7.66,9.26,48.36,18.72,46.85,51.25-.08,1.79,15,34.27,14,51.54-.81,14.8,40.19,32.43,55.22,69.6,19.24,47.65-5.2-45.42,14.49-15.42,16,24.45,27.32,15.6,54.19,55.31,3,4.35,10.37,14.62,15,19.12h3.89c-.31-2.18-1.63-6.2-4.38-12.7-4.46-10.54-9.26-49.67-15.09-53.26-10-6.15-48.63-31.24-48.51-39.33.63-38.8,50.48,27.67,37.31.28-25.24-52.48-14.17-18.39-28.21-26.1,6.39-8.07,2-13.28,3.84-18.19,9.65-3.21,11.31,1.44-11.06-19.85-23.77-22.61,7.18-33-5.75-61.49-5.53-12.16,14.73-11,28.41.1,7,5.72,58.64,28.43,92.48,42.39q40.24,47,95.19,62.75-41.91-23.47-68.76-52.38a25.63,25.63,0,0,0,2.71.79c39.63,6.5,29.79,13.76,53.35,26.93,15.13,2,46.65,39.71,89.71,50.61,22.79,5.79,46.31,46.67,70.87,64.19,46.55,33.16,14.78,16.16,65.67,31,5,1.47,9.25,2.88,13,4.25h17.85c-27.54-9.43-44.75-33-64.4-39.84-38.73-13.35-58.42-42.21-83.46-70.51-26.44-29.89-64-26.66-77.71-43.27-9.42-11.44-64.53-40.75-79.65-45.71-.38-.35-1.36-.55-2-1-2.06-1.39-3.06-1.39-4.56-2.23-3.45-2-4.48,0-8.21,0-1.4,0-6.12-3-6.26-3.39-.42-.23-2.25-1-2.5-1.19-2.35-2-8.52-6.35-11.43-6.65-2.07-.21-5.74-2.68-7.24-3.16-4-1.32-5.23-4.33-11-5.32-4.51-.76-10.3-2.25-14.22-4.62,0-.49-47.81-13.86-50.41-14.55a20.59,20.59,0,0,1-3-1.19c-10-11.25-26.28-13.55-38.89-20.63-5.81-3.24-28.81,9-36.93,14.29-4.26,2.78-6.54,2.73-9.33,5.08-1.7,1.44-13.91,6.83-15.89,5.11-1.72-1.52-.58-1-2.32-1.37-7.13-1.57-5.59,2.51-9,3-6.14.83-3.53,1.74-6.66,2.83-5.17,1.85-2,3.14-7.4,3-4.17-6.28-16-8-21.51-16.29-1.22-1.85-11.57-11.08-14.87-11.16-4.18-.05-16-12.29-22.71-14.49-.06,0-7.83-5.49-8.24-5.84-.06-.05-5.92-2.63-7.47-4.05-2.1-1.92-9.64-5-15.51-6.6A29.31,29.31,0,0,0,723,5.24C714.22,3.09,713.3-2,707,.81,694.22,6.35,697.06,4,683.39,12.93c-1.29-.18-8.42,1.24-9.11,1.92-3.66,3.52-6.35,7.64-10.42,7.56-7.31-.12-5,1.47-13.27,5.8-7,3.71-8.4,6.42-16.07,9.61-3.4,1.44-11.44,9-14.84,8.65-2,1.24-5.44-1.57-9.44,4.6-.73,1.11-5.25,1-9.44,6.25-.17.23-4.47,2.32-5.65,3.54-7.24,7.41-3.34,2.86-6.61,4.7A113.73,113.73,0,0,1,574.17,73c-9.72,3.74-9.31,6.55-14,9.31-6.2,3.66-6.6,5.81-14.54,8.57-4.28,1.52-18.34,12.57-23,13.41-4.47.75-20.91,16.18-27.37,19a19.65,19.65,0,0,0-2.5,1.82c-9.51,1.14-12.72,7.64-20.86,11.53-3.72,1.77-4.54,4.08-9.13,5.34-6.52,1.75-16,11.38-18.67,12.29-5.49,1.9-14.4,10.22-19.45,9.74-.08,0-15.18,8.47-15.6,9.08s-.95.78-.93,1.34c-5.56,4.35-2-3.29-12.61,9.33-6.81,8.07-24.49,13.48-35.74,26-2.51,2.78-3.57-3.92-16,14.54-11,16.36-20.95,14.27-34.82,25.34-10.38,8.27-17.34,4.71-33,17.2A224.24,224.24,0,0,1,241.66,289c-4.6,2.48-8.33,7.79-12.94,9.31Z"/><path class="cls-2" d="M1530.45,650.44q-751.17,19.95-1503.39,0,751.47-11.43,1503.39,0Z"/><path class="cls-2" d="M1462.51,822.38a208.34,208.34,0,0,1-69.89-72.06,359.44,359.44,0,0,1,69.89,72.06Z"/><path class="cls-2" d="M1385.25,822.38a359.39,359.39,0,0,1,69.88-72.06,208.31,208.31,0,0,1-69.88,72.06Z"/><path class="cls-2" d="M227.83,822.38a208.34,208.34,0,0,1-69.89-72.06,359.44,359.44,0,0,1,69.89,72.06Z"/><path class="cls-2" d="M150.57,822.38a359.39,359.39,0,0,1,69.88-72.06,208.31,208.31,0,0,1-69.88,72.06Z"/></g></g></svg>